<svg width="16" height="20" viewBox="0 0 16 20" fill="none" xmlns="http://www.w3.org/2000/svg">
<g id="Frame">
<g clip-path="url(#clip0_1_230)">
<path id="Vector" d="M8 0C6.36719 0 4.97656 1.04297 4.46484 2.5H3C1.62109 2.5 0.5 3.62109 0.5 5V17.5C0.5 18.8789 1.62109 20 3 20H13C14.3789 20 15.5 18.8789 15.5 17.5V5C15.5 3.62109 14.3789 2.5 13 2.5H11.5352C11.0234 1.04297 9.63281 0 8 0ZM8 2.5C8.33152 2.5 8.64946 2.6317 8.88388 2.86612C9.1183 3.10054 9.25 3.41848 9.25 3.75C9.25 4.08152 9.1183 4.39946 8.88388 4.63388C8.64946 4.8683 8.33152 5 8 5C7.66848 5 7.35054 4.8683 7.11612 4.63388C6.8817 4.39946 6.75 4.08152 6.75 3.75C6.75 3.41848 6.8817 3.10054 7.11612 2.86612C7.35054 2.6317 7.66848 2.5 8 2.5ZM12.4141 10.6641L7.41406 15.6641C7.04688 16.0312 6.45313 16.0312 6.08984 15.6641L3.58594 13.1641C3.21875 12.7969 3.21875 12.2031 3.58594 11.8398C3.95312 11.4766 4.54688 11.4727 4.91016 11.8398L6.74609 13.6758L11.0859 9.33594C11.4531 8.96875 12.0469 8.96875 12.4102 9.33594C12.7734 9.70312 12.7773 10.2969 12.4102 10.6602L12.4141 10.6641Z" fill="black"/>
</g>
</g>
<defs>
<clipPath id="clip0_1_230">
<path d="M0.5 0H15.5V20H0.5V0Z" fill="white"/>
</clipPath>
</defs>
</svg>
