<svg width="20" height="20" viewBox="0 0 20 20" fill="none" xmlns="http://www.w3.org/2000/svg">
<g id="Frame">
<path d="M0 0H20V20H0V0Z" stroke="#E5E7EB"/>
<path id="Vector" d="M1.85938 11.7343L8.91797 18.3242C9.21094 18.5976 9.59766 18.75 10 18.75C10.4023 18.75 10.7891 18.5976 11.082 18.3242L18.1406 11.7343C19.3281 10.6289 20 9.07809 20 7.457V7.23043C20 4.49997 18.0273 2.17184 15.3359 1.72262C13.5547 1.42575 11.7422 2.00778 10.4688 3.28122L10 3.74997L9.53125 3.28122C8.25781 2.00778 6.44531 1.42575 4.66406 1.72262C1.97266 2.17184 0 4.49997 0 7.23043V7.457C0 9.07809 0.671875 10.6289 1.85938 11.7343Z" fill="black"/>
</g>
</svg>
