<svg width="26" height="20" viewBox="0 0 26 20" fill="none" xmlns="http://www.w3.org/2000/svg">
<g id="Frame">
<g clip-path="url(#clip0_1_221)">
<path id="Vector" d="M8.625 13.75C13.1133 13.75 16.75 10.6719 16.75 6.875C16.75 3.07812 13.1133 0 8.625 0C4.13672 0 0.5 3.07812 0.5 6.875C0.5 8.38281 1.07422 9.77734 2.04688 10.9141C1.91016 11.2812 1.70703 11.6055 1.49219 11.8789C1.30469 12.1211 1.11328 12.3086 0.972657 12.4375C0.902344 12.5 0.84375 12.5508 0.804688 12.582C0.785157 12.5977 0.769532 12.6094 0.761719 12.6133L0.753907 12.6211C0.539063 12.7812 0.445313 13.0625 0.53125 13.3164C0.617188 13.5703 0.855469 13.75 1.125 13.75C1.97656 13.75 2.83594 13.5312 3.55078 13.2617C3.91016 13.125 4.24609 12.9727 4.53906 12.8164C5.73828 13.4102 7.13281 13.75 8.625 13.75ZM18 6.875C18 11.2617 14.1289 14.5664 9.54297 14.9609C10.4922 17.8672 13.6406 20 17.375 20C18.8672 20 20.2617 19.6602 21.4648 19.0664C21.7578 19.2227 22.0898 19.375 22.4492 19.5117C23.1641 19.7812 24.0234 20 24.875 20C25.1445 20 25.3867 19.8242 25.4688 19.5664C25.5508 19.3086 25.4609 19.0273 25.2422 18.8672L25.2344 18.8594C25.2266 18.8516 25.2109 18.8438 25.1914 18.8281C25.1523 18.7969 25.0937 18.75 25.0234 18.6836C24.8828 18.5547 24.6914 18.3672 24.5039 18.125C24.2891 17.8516 24.0859 17.5234 23.9492 17.1602C24.9219 16.0273 25.4961 14.6328 25.4961 13.1211C25.4961 9.49609 22.1797 6.52344 17.9727 6.26562C17.9883 6.46484 17.9961 6.66797 17.9961 6.87109L18 6.875Z" fill="black"/>
</g>
</g>
<defs>
<clipPath id="clip0_1_221">
<path d="M0.5 0H25.5V20H0.5V0Z" fill="white"/>
</clipPath>
</defs>
</svg>
